<svg xmlns="http://www.w3.org/2000/svg" xmlns:xlink="http://www.w3.org/1999/xlink" xmlns:sketch="http://www.bohemiancoding.com/sketch/ns" viewBox="0 0 48 54" version="1.1" x="0px" y="0px"><title>62 - Fantasia (Solid)</title><desc>Created with Sketch.</desc><g stroke="none" stroke-width="1" fill="none" fill-rule="evenodd" sketch:type="MSPage"><g sketch:type="MSLayerGroup" fill="#000000"><path d="M1.831,13.876 C1.767,14.251 1.921,14.63 2.228,14.854 C2.403,14.98 2.609,15.045 2.816,15.045 C2.976,15.045 3.136,15.007 3.282,14.93 L5.755,13.63 L8.229,14.93 C8.565,15.107 8.976,15.078 9.282,14.854 C9.59,14.63 9.744,14.251 9.68,13.876 L9.207,11.122 L11.209,9.171 C11.481,8.906 11.579,8.508 11.462,8.146 C11.344,7.784 11.031,7.52 10.654,7.465 L7.889,7.063 L6.651,4.557 C6.315,3.874 5.194,3.875 4.858,4.557 L3.622,7.063 L0.856,7.465 C0.479,7.52 0.167,7.784 0.049,8.146 C-0.068,8.508 0.029,8.906 0.302,9.171 L2.304,11.122 L1.831,13.876" sketch:type="MSShapeGroup"></path><path d="M38.304,11.122 L37.831,13.876 C37.767,14.251 37.921,14.63 38.228,14.854 C38.403,14.98 38.609,15.045 38.816,15.045 C38.976,15.045 39.136,15.007 39.282,14.93 L41.755,13.63 L44.229,14.93 C44.565,15.107 44.976,15.078 45.282,14.854 C45.59,14.63 45.744,14.251 45.68,13.876 L45.207,11.122 L47.209,9.171 C47.481,8.906 47.579,8.508 47.462,8.146 C47.344,7.784 47.031,7.52 46.654,7.465 L43.889,7.063 L42.651,4.557 C42.315,3.874 41.194,3.875 40.858,4.557 L39.622,7.063 L36.856,7.465 C36.479,7.52 36.167,7.784 36.049,8.146 C35.932,8.508 36.029,8.906 36.302,9.171 L38.304,11.122" sketch:type="MSShapeGroup"></path><path d="M26.768,24.836 C26.914,24.913 27.074,24.951 27.233,24.951 C27.44,24.951 27.646,24.887 27.821,24.76 C28.129,24.536 28.283,24.157 28.219,23.782 L27.69,20.7 L29.93,18.517 C30.202,18.251 30.3,17.853 30.183,17.492 C30.064,17.13 29.752,16.866 29.375,16.811 L26.28,16.362 L24.896,13.557 C24.561,12.875 23.439,12.875 23.104,13.557 L21.72,16.362 L18.625,16.811 C18.248,16.866 17.936,17.13 17.817,17.492 C17.7,17.853 17.798,18.251 18.07,18.517 L20.31,20.7 L19.781,23.782 C19.717,24.157 19.871,24.536 20.179,24.76 C20.488,24.984 20.896,25.014 21.232,24.836 L24,23.381 L26.768,24.836" sketch:type="MSShapeGroup"></path><path d="M44.77,41.29 L26.026,1.844 C25.719,1.024 24.962,0.498 24.08,0.498 C23.174,0.498 22.391,1.064 22.105,1.916 L4.23,41.277 C1.436,42.785 1,44.866 1,46 C1,51.196 13.107,54 24.5,54 C35.893,54 48,51.196 48,46 C48,44.155 46.793,42.42 44.77,41.29 L44.77,41.29 Z M8.896,35.839 L11.269,34.592 L13.727,35.885 C13.873,35.962 14.033,36 14.192,36 C14.399,36 14.605,35.935 14.78,35.809 C15.088,35.585 15.242,35.206 15.178,34.831 L14.709,32.093 L16.698,30.153 C16.971,29.888 17.068,29.49 16.951,29.128 C16.833,28.767 16.521,28.502 16.144,28.448 L13.395,28.048 L12.894,27.035 L23.951,2.688 L24.136,2.62 L24.156,2.552 L42.706,41.607 C37.678,44.452 28.555,46 25,46 C19.932,46 9.63,42.56 6.361,41.421 L8.896,35.839 L8.896,35.839 Z" sketch:type="MSShapeGroup"></path><path d="M31.5,42.803 C33.771,42.803 35.905,41.919 37.511,40.313 C37.778,40.046 37.872,39.649 37.752,39.29 C37.633,38.931 37.319,38.67 36.944,38.616 L36.173,38.507 C31.267,37.806 27.574,33.865 27.193,28.923 C27.163,28.534 26.909,28.198 26.543,28.062 C26.175,27.926 25.764,28.017 25.489,28.293 C22.175,31.607 22.175,36.999 25.489,40.313 C27.095,41.919 29.229,42.803 31.5,42.803" sketch:type="MSShapeGroup"></path></g></g></svg>